<?xml version="1.0" encoding="UTF-8"?>
<svg id="Layer_1" data-name="Layer 1" xmlns="http://www.w3.org/2000/svg" viewBox="0 0 202.1 79.2">
  <defs>
    <style>
      .cls-1 {
        fill: #fff;
      }

      .cls-2 {
        fill: #00c2be;
      }
    </style>
  </defs>
  <rect class="cls-1" x="63.48" width="17.63" height="3.59" rx="1.71" ry="1.71"/>
  <rect class="cls-1" x="63.49" y="16.34" width="17.63" height="9.1" rx="4.34" ry="4.34"/>
  <rect class="cls-1" x="63.49" y="38.19" width="17.63" height="3.59" rx="1.71" ry="1.71"/>
  <path class="cls-1" d="M58.13,38.22s-4.02-.96-5.4-2.46-2.24-3.57-2.24-5.85V11.89c0-2.29.86-4.36,2.24-5.85,1.38-1.5,5.4-2.46,5.4-2.46.35-.07.67-.25.91-.49.32-.33.53-.77.53-1.27,0-.87-.62-1.6-1.44-1.76-.11-.02-.23-.04-.36-.04h-8.13c-4.8,0-8.69,4.22-8.69,9.42v22.93c0,5.2,3.89,9.42,8.69,9.42h8.13c.12,0,.24,0,.36-.04.82-.17,1.44-.89,1.44-1.76,0-.5-.2-.94-.53-1.27-.25-.24-.56-.42-.91-.49h0Z"/>
  <path class="cls-1" d="M101.09,13.86l-3.39-5.92-.06-.1-1.01-1.76-2.47-4.31C93.53.68,92.37,0,91.11,0h-6.06l10.97,19.14c.62,1.09.62,2.42,0,3.5l-10.99,19.03v.1h6.03c1.25,0,2.41-.67,3.04-1.76l6.97-12.07h0l3.05-5.29c.63-1.08.63-2.42,0-3.5l-3.03-5.3h0Z"/>
  <rect class="cls-2" x="120.99" y=".01" width="17.65" height="3.59" rx="1.71" ry="1.71"/>
  <rect class="cls-2" x="120.98" y="16.34" width="17.65" height="9.1" rx="4.34" ry="4.34"/>
  <rect class="cls-2" x="120.99" y="38.18" width="17.65" height="3.59" rx="1.71" ry="1.71"/>
  <path class="cls-2" d="M108.75.61l-5.86,10.15c-.21.37-.21.83,0,1.2l2.67,4.63c.46.8,1.61.8,2.08,0L117.15.11V.01h-7.36c-.43,0-.82.23-1.04.6Z"/>
  <path class="cls-2" d="M105.46,25.37l-2.57,4.46c-.23.4-.23.89,0,1.28l5.74,10.01c.23.4.66.65,1.12.65h7.35l-9.4-16.4c-.49-.86-1.74-.86-2.23,0h0Z"/>
  <path class="cls-2" d="M143.06,38.71c-.32.33-.53.77-.53,1.27,0,.87.62,1.6,1.44,1.76.11.02.23.04.36.04h8.13c4.8,0,8.69-4.22,8.69-9.42V9.43C161.15,4.23,157.26.01,152.46.01h-8.13c-.12,0-.24.01-.36.04-.82.17-1.44.89-1.44,1.76,0,.5.2.94.53,1.27.25.24.56.42.91.49,0,0,4.02.96,5.4,2.46,1.38,1.5,2.24,3.57,2.24,5.85v18.02c0,2.29-.86,4.36-2.24,5.85-1.38,1.5-5.4,2.46-5.4,2.46-.35.07-.67.25-.91.49h0Z"/>
  <g>
    <path class="cls-2" d="M10.37,76.86H0v-18.6h10.37v1.92H2.17v5.99h7.71v1.91H2.17v6.84h8.2v1.93h0Z"/>
    <path class="cls-2" d="M26.87,76.86h-2.46l-5-8.18-5.09,8.18h-2.29l6.18-9.72-5.76-8.88h2.39l4.62,7.37,4.66-7.37h2.3l-5.76,8.8,6.21,9.79h0Z"/>
    <path class="cls-2" d="M37.49,59.93c-2.04,0-3.66.68-4.84,2.04s-1.77,3.22-1.77,5.59.57,4.31,1.71,5.64,2.77,1.99,4.88,1.99c1.3,0,2.78-.23,4.44-.7v1.9c-1.29.48-2.88.72-4.77.72-2.74,0-4.85-.83-6.34-2.49-1.49-1.66-2.23-4.02-2.23-7.09,0-1.92.36-3.6,1.07-5.04.72-1.44,1.75-2.55,3.1-3.33s2.94-1.17,4.78-1.17c1.95,0,3.65.36,5.11,1.07l-.92,1.86c-1.41-.66-2.82-.99-4.22-.99Z"/>
    <path class="cls-2" d="M56.33,76.86h-10.37v-18.6h10.37v1.92h-8.2v5.99h7.71v1.91h-7.71v6.84h8.2v1.93h0Z"/>
    <path class="cls-2" d="M70.82,76.86h-10.37v-18.6h10.37v1.92h-8.2v5.99h7.71v1.91h-7.71v6.84h8.2v1.93h0Z"/>
    <path class="cls-2" d="M89.78,67.38c0,3.07-.83,5.42-2.5,7.04s-4.06,2.44-7.19,2.44h-5.15v-18.6h5.7c2.89,0,5.14.8,6.74,2.4s2.4,3.84,2.4,6.72ZM87.49,67.46c0-2.43-.61-4.25-1.83-5.48s-3.03-1.84-5.43-1.84h-3.14v14.86h2.63c2.58,0,4.52-.63,5.81-1.9,1.3-1.27,1.95-3.14,1.95-5.63h.01Z"/>
  </g>
  <path class="cls-1" d="M179.35,62.66c-.56-.43-1.54-.65-2.9-.65h-1.88v5.35h2.24c1.09,0,1.94-.24,2.51-.7.55-.45.82-1.1.82-2.01s-.26-1.59-.79-1.99h0ZM179.35,62.66c-.56-.43-1.54-.65-2.9-.65h-1.88v5.35h2.24c1.09,0,1.94-.24,2.51-.7.55-.45.82-1.1.82-2.01s-.26-1.59-.79-1.99h0ZM195.83,55.98h-91.09c-3.46,0-6.27,2.81-6.27,6.27v10.68c0,3.46,2.81,6.27,6.27,6.27h91.09c3.46,0,6.27-2.81,6.27-6.27v-10.68c0-3.46-2.81-6.27-6.27-6.27ZM115.3,75.49h-1.58l-5.74-15.38h2.14l3.74,10.11c.26.7.48,1.31.66,1.84.09-.25,4.37-11.95,4.37-11.95h2.16s-5.75,15.38-5.75,15.38ZM130.73,62.03h-6.86v4.44h6.47v1.93h-6.47v5.16h6.86v1.93h-8.86v-15.38h8.86s0,1.92,0,1.92ZM144.44,75.49h-1.78l-7.75-11.63c.02.73.04,1.34.04,1.8v9.83h-1.97v-15.38h1.78l7.73,11.59c0-.59-.02-1.16-.02-1.71v-9.88h1.97v15.38h0ZM156.94,62.05h-4.68v13.44h-2.01v-13.44h-4.67v-1.94h11.36v1.94h0ZM169.65,69.91c0,1.79-.54,3.21-1.59,4.24-1.05,1.02-2.51,1.54-4.35,1.54s-3.23-.53-4.26-1.55c-1.02-1.03-1.55-2.46-1.55-4.27v-9.76h2.02v9.8c0,1.26.33,2.2,1,2.88.68.68,1.63,1.01,2.9,1.01s2.17-.32,2.84-.99c.66-.67.98-1.58.98-2.8v-9.9h2.01v9.8h0ZM181.06,75.49l-3.71-6.27h-2.78v6.27h-2.01v-15.38h3.93c1.88,0,3.32.36,4.26,1.09.97.75,1.47,1.89,1.47,3.37,0,1.07-.29,1.99-.87,2.74-.46.61-1.12,1.08-1.96,1.41l4.04,6.77h-2.37,0ZM193.4,62.03h-6.86v4.44h6.47v1.93h-6.47v5.16h6.86v1.93h-8.86v-15.38h8.86s0,1.92,0,1.92ZM179.35,62.66c-.56-.43-1.54-.65-2.9-.65h-1.88v5.35h2.24c1.09,0,1.94-.24,2.51-.7.55-.45.82-1.1.82-2.01s-.26-1.59-.79-1.99h0ZM179.35,62.66c-.56-.43-1.54-.65-2.9-.65h-1.88v5.35h2.24c1.09,0,1.94-.24,2.51-.7.55-.45.82-1.1.82-2.01s-.26-1.59-.79-1.99h0ZM179.35,62.66c-.56-.43-1.54-.65-2.9-.65h-1.88v5.35h2.24c1.09,0,1.94-.24,2.51-.7.55-.45.82-1.1.82-2.01s-.26-1.59-.79-1.99h0Z"/>
</svg>