<?xml version="1.0" encoding="UTF-8"?>
<svg id="Layer_1" data-name="Layer 1" xmlns="http://www.w3.org/2000/svg" viewBox="0 0 85.33 85.33">
  <defs>
    <style>
      .cls-1 {
        fill: #fffdfd;
        stroke: #000;
        stroke-miterlimit: 10;
      }
    </style>
  </defs>
  <rect class="cls-1" x=".5" y=".5" width="84.33" height="84.33" rx="12" ry="12"/>
  <path d="M41.27,31.6l-5.34-9.32-.09-.16-1.59-2.76-3.89-6.78c-.98-1.72-2.81-2.78-4.79-2.78h-9.54l17.27,30.12c.98,1.71.98,3.81,0,5.51l-17.29,29.94v.15h9.48c1.97,0,3.8-1.05,4.79-2.76l10.97-19h0l4.8-8.32c.98-1.7.99-3.8,0-5.51,0,0-4.78-8.33-4.78-8.33Z"/>
  <path d="M53.31,10.74l-9.22,15.97c-.34.58-.34,1.3,0,1.89l4.2,7.28c.73,1.26,2.54,1.26,3.27,0l14.97-25.93v-.15h-11.58c-.67,0-1.3.36-1.63.94h0Z"/>
  <path d="M48.14,49.71l-4.05,7.01c-.36.62-.36,1.39,0,2.02l9.03,15.76c.36.63,1.03,1.02,1.76,1.02h11.57l-14.79-25.81c-.78-1.36-2.73-1.36-3.51,0h0Z"/>
</svg>